<?xml version="1.0" standalone="no"?>
<!DOCTYPE svg PUBLIC "-//W3C//DTD SVG 20010904//EN"
 "http://www.w3.org/TR/2001/REC-SVG-20010904/DTD/svg10.dtd">
<svg version="1.0" xmlns="http://www.w3.org/2000/svg"
 width="225.000000pt" height="225.000000pt" viewBox="0 0 225.000000 225.000000"
 preserveAspectRatio="xMidYMid meet">
<metadata>
Created by potrace 1.11, written by Peter Selinger 2001-2013
</metadata>
<g transform="translate(0.000000,225.000000) scale(0.100000,-0.100000)"
fill="#000000" stroke="none">
<path d="M900 2055 c-370 -83 -638 -333 -742 -691 -20 -69 -23 -102 -23 -249
0 -146 3 -181 22 -246 65 -222 195 -408 373 -534 185 -129 370 -183 598 -172
138 6 239 30 356 85 111 53 197 112 277 193 342 346 371 889 67 1272 -118 149
-319 280 -503 328 -106 27 -332 35 -425 14z m388 -19 c317 -68 591 -318 691
-631 59 -182 62 -371 11 -550 -70 -243 -253 -466 -476 -578 -246 -124 -513
-139 -768 -43 -243 92 -457 307 -545 548 -46 123 -55 179 -56 328 0 147 7 198
47 315 110 324 408 571 753 625 80 12 252 5 343 -14z"/>
<path d="M895 2003 c-338 -72 -615 -341 -695 -675 -25 -104 -27 -311 -5 -408
45 -190 136 -345 283 -481 118 -109 272 -185 437 -216 108 -20 302 -13 408 15
303 82 553 335 639 647 31 115 31 345 0 460 -93 338 -359 588 -700 660 -92 19
-274 18 -367 -2z m206 -137 c31 -7 39 -28 39 -103 0 -57 -20 -88 -51 -80 -15
4 -19 -1 -19 -24 0 -31 -23 -41 -34 -13 -8 21 -8 219 1 227 4 4 14 5 22 3 9
-2 28 -7 42 -10z m169 -21 c24 -29 -14 -234 -41 -226 -8 2 -25 4 -39 6 -39 3
-40 4 -40 29 0 44 17 73 47 81 33 8 43 21 43 58 0 36 -19 35 -26 -3 -5 -20
-12 -30 -25 -30 -15 0 -17 5 -12 33 3 17 10 40 15 50 11 21 61 23 78 2z m-355
-49 c18 -46 14 -66 -10 -66 -8 0 -17 15 -21 35 -3 20 -12 35 -20 35 -19 0 -18
-3 16 -105 23 -68 27 -91 18 -96 -18 -11 -21 -6 -56 96 -41 123 -42 127 -12
136 56 16 67 11 85 -35z m484 8 c18 -9 35 -23 38 -31 7 -19 -27 -93 -43 -93
-22 0 -25 18 -9 49 18 37 19 41 2 41 -7 0 -32 -40 -54 -90 -33 -71 -45 -89
-58 -84 -9 4 -15 10 -13 14 22 56 94 210 99 210 3 0 20 -7 38 -16z m-646 -48
c12 -13 31 -41 42 -61 l19 -37 -23 -17 c-20 -15 -22 -21 -12 -40 13 -24 33
-19 29 7 -4 25 29 27 37 2 9 -29 -20 -60 -56 -60 -24 0 -34 11 -72 73 -61 101
-63 111 -31 136 34 27 40 26 67 -3z m788 -35 c23 -18 23 -20 7 -52 -23 -48
-106 -159 -118 -159 -6 0 -13 7 -16 15 -4 8 -14 15 -24 15 -37 0 -33 45 6 85
12 12 26 15 50 11 28 -6 35 -3 54 24 31 43 14 61 -20 21 -21 -27 -28 -30 -37
-19 -9 11 -6 21 13 46 29 37 52 40 85 13z m-868 -110 c42 -43 77 -85 77 -93 0
-22 -47 -61 -64 -55 -22 9 -20 28 4 34 11 3 20 11 20 17 0 23 -11 25 -31 5
-10 -10 -24 -19 -31 -19 -14 0 -118 103 -118 117 0 12 51 73 60 73 4 0 41 -35
83 -79z m946 -18 c9 -17 10 -17 29 0 15 14 21 15 30 4 8 -10 -8 -30 -73 -90
-46 -42 -88 -77 -93 -77 -10 0 -52 61 -52 75 0 5 24 30 53 56 54 51 89 61 106
32z m-1077 -48 c24 -16 35 -30 32 -40 -8 -19 -10 -19 -50 5 -23 15 -34 17 -39
9 -4 -6 -3 -14 2 -18 5 -3 42 -28 81 -54 72 -48 82 -60 61 -72 -12 -8 -198
114 -199 130 0 15 49 65 63 65 7 0 29 -11 49 -25z m1193 -25 c4 -6 1 -18 -6
-26 -12 -14 -14 -14 -26 2 -10 14 -10 19 0 26 16 10 25 10 32 -2z m-51 -37 c4
-9 1 -20 -6 -24 -7 -5 -40 -26 -73 -48 -52 -35 -62 -38 -74 -26 -8 8 -13 16
-10 19 11 10 145 95 150 96 4 0 10 -8 13 -17z m-1144 -103 c55 -22 68 -39 54
-77 -13 -39 -45 -40 -133 -3 -41 16 -80 30 -87 30 -8 0 -14 9 -14 20 0 27 11
25 103 -10 80 -31 107 -36 107 -22 0 5 -43 26 -95 46 -52 21 -95 39 -95 41 0
2 3 10 6 19 5 13 12 12 57 -5 29 -12 72 -29 97 -39z m726 29 c95 -36 174 -129
174 -206 0 -25 -7 -36 -36 -54 -34 -21 -46 -22 -336 -25 -186 -2 -308 1 -320
7 -38 20 -12 135 46 199 82 93 326 133 472 79z m522 6 c17 -37 15 -52 -10 -69
-28 -20 -34 -20 -42 0 -4 10 1 22 11 30 17 12 17 13 0 19 -23 9 -47 -11 -47
-40 0 -31 -29 -64 -67 -74 -25 -7 -35 -5 -52 10 -27 26 -27 64 1 83 29 20 48
5 30 -24 -10 -17 -10 -21 3 -26 23 -9 45 15 45 47 0 22 8 34 33 49 45 28 81
26 95 -5z m33 -135 c13 -8 19 -21 19 -46 0 -39 -20 -51 -102 -61 l-48 -6 0 32
c0 31 -6 36 -34 25 -20 -8 -21 -34 -1 -34 18 0 20 -29 3 -31 -42 -4 -58 10
-58 52 0 37 14 45 100 62 96 19 98 19 121 7z m-1389 -37 c11 -10 18 -11 23 -4
10 17 71 13 95 -7 19 -16 21 -24 15 -60 -4 -23 -12 -42 -19 -42 -19 0 -179 20
-203 25 -25 6 -30 35 -14 79 14 36 65 41 103 9z m1368 -160 c0 -27 -7 -78 -15
-115 -15 -73 -87 -238 -104 -238 -23 0 -20 24 13 92 39 80 66 172 66 228 0 50
10 80 26 80 10 0 14 -14 14 -47z m-90 -5 c0 -55 -29 -158 -62 -225 -33 -68
-44 -81 -59 -66 -6 6 4 38 26 86 21 43 41 105 47 144 14 90 15 93 33 93 10 0
15 -10 15 -32z m-1296 -37 c8 -63 38 -149 75 -217 16 -30 28 -54 26 -54 -2 0
-10 -3 -18 -6 -29 -11 -106 165 -122 279 -6 42 -4 47 13 47 16 0 21 -9 26 -49z
m811 39 c-22 -5 -90 -22 -152 -37 -122 -30 -168 -27 -258 14 l-40 18 125 5
c238 10 369 9 325 0z m-716 -58 c6 -32 27 -90 45 -129 34 -70 35 -83 10 -83
-17 0 -70 112 -84 175 -5 28 -12 60 -15 73 -4 17 -1 22 14 22 15 0 21 -12 30
-58z m947 -94 c-9 -46 -29 -73 -69 -92 -30 -14 -76 -16 -324 -16 -258 0 -290
2 -309 18 -29 23 -37 54 -20 78 14 18 26 19 223 16 135 -1 246 3 318 12 61 8
127 14 149 15 38 1 38 1 32 -31z m-767 -169 c22 -28 23 -32 7 -47 -15 -15 -17
-15 -28 1 -12 15 -15 15 -38 -2 -20 -16 -22 -21 -11 -35 11 -13 11 -19 1 -31
-12 -14 -15 -14 -32 1 -17 16 -20 16 -41 -4 -27 -26 -43 -28 -50 -7 -4 9 22
38 76 85 45 38 84 70 87 69 3 0 16 -14 29 -30z m886 -40 c4 -10 14 -19 23 -19
9 0 33 -13 52 -29 29 -25 32 -31 21 -45 -12 -14 -16 -14 -38 4 -39 30 -51 24
-19 -9 26 -27 28 -51 5 -51 -6 0 -46 33 -90 72 -69 64 -77 74 -64 87 13 13 19
11 52 -19 34 -33 36 -33 19 -7 -14 22 -15 31 -5 43 14 17 34 4 44 -27z m-813
-36 c28 -25 23 -40 -37 -114 -56 -69 -71 -77 -104 -59 -44 23 -35 53 37 138
47 55 72 64 104 35z m719 -15 c32 -36 36 -53 14 -61 -8 -4 -22 5 -34 21 -11
15 -22 24 -25 21 -3 -3 13 -31 37 -63 33 -46 43 -54 45 -38 4 29 30 35 43 11
15 -28 -12 -69 -46 -69 -23 0 -59 40 -119 132 -17 27 -17 28 8 53 32 32 41 32
77 -7z m-83 -85 c53 -117 54 -121 32 -143 -23 -23 -53 -26 -69 -6 -18 21 -81
155 -81 171 0 8 8 15 18 15 12 0 29 -25 55 -82 20 -45 40 -78 44 -75 3 4 -11
43 -32 88 -31 66 -35 83 -24 90 23 14 25 12 57 -58z m-533 37 c15 -17 16 -24
7 -45 -11 -24 -11 -25 9 -15 11 7 27 9 36 6 9 -4 17 1 20 14 6 22 11 24 31 12
9 -6 6 -30 -17 -104 -15 -52 -31 -101 -35 -107 -9 -14 -86 24 -86 43 0 7 7 35
15 62 20 67 18 68 -16 2 -25 -51 -33 -58 -58 -58 -38 0 -64 25 -55 54 10 33
55 119 72 139 20 23 55 22 77 -3z m392 -28 c14 -9 33 -56 33 -82 0 -21 -29
-35 -35 -17 -35 99 -42 85 -15 -28 17 -71 19 -90 8 -96 -7 -5 -16 -9 -19 -9
-6 0 -50 176 -53 209 -1 21 58 38 81 23z m-97 -37 c0 -16 -6 -25 -16 -25 -13
0 -15 -12 -8 -91 l7 -91 -24 4 c-23 3 -24 7 -27 91 -2 68 -6 87 -17 87 -9 0
-15 10 -15 25 0 23 3 25 50 25 47 0 50 -2 50 -25z m-127 -94 c6 -25 -9 -40
-34 -34 -22 6 -21 35 1 45 24 10 27 9 33 -11z"/>
<path d="M1070 1775 c0 -42 3 -55 15 -55 12 0 15 12 14 55 -1 39 -6 55 -15 55
-10 0 -14 -15 -14 -55z"/>
<path d="M1201 1697 c-16 -20 -6 -56 10 -40 6 6 9 21 7 33 -3 21 -4 22 -17 7z"/>
<path d="M707 1734 c-7 -7 34 -84 45 -84 18 0 17 23 -4 54 -23 36 -30 41 -41
30z"/>
<path d="M1413 1585 c-3 -9 -3 -19 1 -22 7 -7 36 16 36 28 0 15 -30 10 -37 -6z"/>
<path d="M580 1627 c0 -19 66 -80 81 -75 8 3 -1 19 -25 46 -39 43 -56 52 -56
29z"/>
<path d="M1536 1531 c-52 -53 -28 -67 25 -15 21 21 39 42 39 46 0 19 -29 5
-64 -31z"/>
<path d="M1748 1243 c-35 -5 -38 -33 -4 -33 13 0 31 3 40 6 19 7 22 35 4 33
-7 -1 -25 -4 -40 -6z"/>
<path d="M370 1205 c0 -9 9 -15 25 -15 16 0 25 6 25 15 0 9 -9 15 -25 15 -16
0 -25 -6 -25 -15z"/>
<path d="M460 1195 c0 -8 6 -15 14 -15 8 0 21 -3 30 -6 12 -4 16 0 16 15 0 17
-6 21 -30 21 -20 0 -30 -5 -30 -15z"/>
<path d="M681 611 c-53 -63 -53 -90 0 -31 46 53 64 80 50 80 -5 0 -28 -22 -50
-49z"/>
<path d="M791 541 c-18 -34 -30 -65 -28 -68 8 -7 69 106 64 120 -2 6 -18 -17
-36 -52z"/>
<path d="M891 492 c-7 -20 -15 -43 -18 -51 -3 -8 0 -12 8 -9 16 5 41 85 30 93
-5 2 -13 -12 -20 -33z"/>
</g>
</svg>
